# xmcd
#
# Track frame offsets: 
#        150
#        54342
#        97800
#        121095
#
# Disc length: 2736 seconds
#
# Revision: 7
# Processed by: cddbd v1.5.2PL0 Copyright (c) Steve Scherf et al.
# Submitted via: ExactAudioCopyFreeDBPlugin 1.0
#
DISCID=230aae04
DTITLE=Isaac Hayes - Hot Buttered Soul
DYEAR=1969
DGENRE=Soul
TTITLE0=Walk On By
TTITLE1=Hyperbolicsyllabicsesquedalymistic
TTITLE2=One Woman
TTITLE3=By The Time I Get To Phoenix
EXTD=ID3G:  42
EXTT0=
EXTT1=
EXTT2=
EXTT3=
PLAYORDER=
